<?xml version="1.0" encoding="UTF-8"?>
<svg version="1.1" xmlns="http://www.w3.org/2000/svg" width="1580" height="2222">
<path d="M0 0 C1.28352859 -0.00262848 1.28352859 -0.00262848 2.59298706 -0.00531006 C5.41862013 -0.009708 8.24419052 -0.00679833 11.06982422 -0.00341797 C13.03229789 -0.00409147 14.99477149 -0.00506189 16.95724487 -0.00631714 C21.06785884 -0.00779122 25.17845106 -0.00564837 29.2890625 -0.00097656 C34.56644986 0.00472806 39.84378644 0.00143525 45.12117195 -0.00454903 C49.17195013 -0.00815604 53.22271619 -0.00701553 57.27349472 -0.00442123 C59.22002035 -0.00375274 61.16654708 -0.00457768 63.11307144 -0.00690079 C65.82801496 -0.0094304 68.54287521 -0.00558266 71.2578125 0 C72.06720276 -0.00202423 72.87659302 -0.00404846 73.71051025 -0.00613403 C79.27098034 0.01512884 79.27098034 0.01512884 81.49951172 1.12939453 C81.52478117 7.80459794 81.5423444 14.4797891 81.55444336 21.1550293 C81.55948497 23.42782044 81.56631809 25.70060833 81.57495117 27.97338867 C81.58702433 31.23243004 81.59274159 34.4914287 81.59716797 37.75048828 C81.60232925 38.77339462 81.60749054 39.79630096 81.61280823 40.85020447 C81.61288376 41.79110428 81.61295929 42.73200409 81.61303711 43.70141602 C81.61525772 44.53414536 81.61747833 45.36687469 81.61976624 46.22483826 C81.49951172 48.12939453 81.49951172 48.12939453 80.49951172 49.12939453 C59.37951172 49.45939453 38.25951172 49.78939453 16.49951172 50.12939453 C16.49951172 217.43939453 16.49951172 384.74939453 16.49951172 557.12939453 C58.07951172 556.79939453 99.65951172 556.46939453 142.49951172 556.12939453 C163.51913836 556.06518147 184.53622505 556.00282468 205.55549192 556.02800059 C211.50676265 556.03398425 217.45803369 556.03465428 223.40930684 556.03565247 C235.06926185 556.03775519 246.72920923 556.0441523 258.38916016 556.05395508 C269.60498012 556.06337366 280.82079789 556.07032858 292.03662109 556.07446289 C292.74727983 556.07472561 293.45793857 556.07498834 294.19013242 556.07525902 C297.76106622 556.07656559 301.33200002 556.07782893 304.90293384 556.07907093 C333.76846466 556.08916482 362.6339881 556.10659676 391.49951172 556.12939453 C391.502465 544.00397715 391.50465696 531.87855985 391.50598824 519.75314218 C391.50662858 514.11713066 391.50749016 508.4811194 391.50894165 502.84510803 C391.51779505 467.4956937 391.45098178 432.1470453 391.32034492 396.79788685 C391.31810063 396.08627346 391.31585634 395.37466008 391.31354403 394.64148265 C391.30719818 393.19819158 391.29731121 391.7549126 391.28425145 390.31166667 C391.18636633 378.22065726 395.05215597 372.08267524 402.49951172 363.12939453 C403.69390835 361.51981732 404.87939624 359.90348258 406.04638672 358.27392578 C407.11301927 356.82912055 408.18072865 355.38510967 409.24951172 353.94189453 C410.44226391 352.3273436 411.63497083 350.71275922 412.82763672 349.09814453 C413.42898438 348.28474609 414.03033203 347.47134766 414.64990234 346.63330078 C416.53465726 344.0818163 418.41607022 341.52790137 420.29638672 338.97314453 C420.91674805 338.13033936 421.53710938 337.28753418 422.17626953 336.41918945 C423.35286464 334.8205137 424.52930808 333.2217263 425.70556641 331.62280273 C426.77703875 330.16781741 427.85146932 328.71500478 428.92919922 327.26464844 C430.01391006 325.78969803 431.08059713 324.30138258 432.13232422 322.80273438 C432.65568359 322.06877441 433.17904297 321.33481445 433.71826172 320.57861328 C434.18167969 319.91563232 434.64509766 319.25265137 435.12255859 318.56958008 C435.57695313 318.09431885 436.03134766 317.61905762 436.49951172 317.12939453 C437.48951172 317.12939453 438.47951172 317.12939453 439.49951172 317.12939453 C439.5911161 350.84598279 439.66157522 384.56254002 439.70377304 418.27922513 C439.70877572 422.26199665 439.71395302 426.24476791 439.71923828 430.22753906 C439.72028752 431.02041949 439.72133676 431.81329991 439.7224178 432.63020702 C439.73981143 445.45954454 439.77134336 458.28881018 439.8081229 471.1181051 C439.84556136 484.28731342 439.86775371 497.45648416 439.8758657 510.62574351 C439.88134746 518.74845663 439.89864575 526.87096657 439.93117759 534.99361713 C439.95486973 541.22762775 439.95732423 547.46148426 439.95194244 553.69553375 C439.9530418 556.24886194 439.96098387 558.80219791 439.97633362 561.35548019 C439.99629074 564.84675446 439.99142907 568.33716566 439.98052979 571.82846069 C439.99218115 572.83432453 440.00383252 573.84018836 440.01583695 574.87653291 C439.93973146 583.92118629 437.46949793 591.95067193 431.20263672 598.66064453 C424.43374216 604.49803984 416.83449892 605.25151351 408.15456867 605.26361561 C407.43338235 605.26596784 406.71219603 605.26832007 405.96915558 605.27074358 C403.55187561 605.27740204 401.13464979 605.27697631 398.71736145 605.27656555 C396.96698176 605.27986612 395.21660282 605.2835921 393.46622485 605.28770703 C388.65534767 605.29771283 383.84448298 605.30144152 379.03359687 605.30409634 C373.84529903 605.3080035 368.65701103 605.31758142 363.46871948 605.3263092 C350.9401011 605.34605993 338.41148192 605.35613716 325.88285187 605.36503699 C319.98230708 605.36942137 314.08176318 605.37478772 308.1812191 605.38002586 C288.5665814 605.39703524 268.95194425 605.41153008 249.3373003 605.4187746 C244.24871126 605.42068448 239.16012223 605.42260481 234.0715332 605.42456055 C232.80680035 605.42504429 231.54206749 605.42552803 230.2390094 605.42602643 C209.74467201 605.43432929 189.25039294 605.45967186 168.75608102 605.49214122 C147.71387587 605.52520687 126.67170037 605.54322284 105.6294691 605.54641885 C93.81541525 605.54858418 82.00144651 605.55733658 70.18741798 605.58288002 C60.12784579 605.60458004 50.06837937 605.61264076 40.00878642 605.60291324 C34.87729906 605.59836683 29.74602998 605.60027488 24.61457253 605.61967468 C19.91342072 605.6372941 15.21264665 605.63631845 10.5114909 605.62077739 C8.81430755 605.61839951 7.11709813 605.62273424 5.41995464 605.63460604 C-4.84241027 605.70192446 -14.70643506 605.55818234 -23.21923828 599.05126953 C-23.80705078 598.33455078 -24.39486328 597.61783203 -25.00048828 596.87939453 C-25.60892578 596.17298828 -26.21736328 595.46658203 -26.84423828 594.73876953 C-31.08122422 588.0635181 -31.94002784 582.11141311 -31.88080502 574.39598274 C-31.88546493 573.44088194 -31.89012485 572.48578114 -31.89492598 571.50173789 C-31.90687872 568.30067048 -31.89747925 565.10002728 -31.88816833 561.8989563 C-31.89234111 559.58103835 -31.89781832 557.26312245 -31.90448815 554.94521034 C-31.9189687 548.57486618 -31.91468981 542.20465111 -31.90732133 535.8342998 C-31.90162113 529.66991195 -31.91289564 523.50554266 -31.92222895 517.34116304 C-31.94189685 503.95461765 -31.94424303 490.56811098 -31.93903375 477.18155459 C-31.9344768 465.46552244 -31.93507548 453.74950562 -31.9408741 442.03347397 C-31.94163097 440.46197713 -31.94238695 438.8904803 -31.94314205 437.31898346 C-31.94428724 434.95088334 -31.94543712 432.58278323 -31.94660129 430.21468312 C-31.95730666 408.19757507 -31.96203117 386.18047212 -31.95413113 364.1633625 C-31.95383395 363.33337535 -31.95353678 362.5033882 -31.9532306 361.64824992 C-31.95078166 354.90814939 -31.94817008 348.16804893 -31.94554647 341.42794847 C-31.93544421 315.13748826 -31.94379888 288.84709192 -31.96704102 262.55664062 C-31.99311227 233.01823078 -32.00596189 203.47985938 -31.99885327 173.9414376 C-31.9981372 170.79194062 -31.99746282 167.64244362 -31.99681282 164.49294662 C-31.99664301 163.71746229 -31.9964732 162.94197795 -31.99629825 162.14299409 C-31.99399513 150.43607537 -32.00197288 138.72919236 -32.01510429 127.02228165 C-32.03001154 113.70845262 -32.03086409 100.39470728 -32.01303338 87.08088006 C-32.0043089 80.28678306 -32.00242228 73.49285552 -32.01768494 66.6987648 C-32.03148275 60.47980119 -32.02683177 54.26113506 -32.0074457 48.04218887 C-32.00367033 45.79192937 -32.00665165 43.54164632 -32.01705735 41.29140772 C-32.03019896 38.23207623 -32.01866839 35.17377575 -32.00105953 32.1144886 C-32.01071004 31.24140338 -32.02036056 30.36831816 -32.03030351 29.46877581 C-31.93857375 21.70383535 -29.5533929 15.32951055 -25.37548828 8.81689453 C-17.94988642 1.87557105 -9.86427992 -0.02479392 0 0 Z " fill="#1955E5" transform="translate(627.50048828125,691.87060546875)"/>
<path d="M0 0 C1.34830957 -0.00210699 2.69661788 -0.00535246 4.04492188 -0.00976562 C13.92034837 0.04534837 13.92034837 0.04534837 16.1875 2.3125 C16.38467518 5.23881493 16.45432325 8.07052604 16.43803978 10.99807072 C16.44083746 11.91278057 16.44363513 12.82749043 16.44651759 13.76991877 C16.45353866 16.8696323 16.44618749 19.96915188 16.4390564 23.06886292 C16.44119269 25.29981758 16.44421643 27.53077155 16.44805682 29.76172394 C16.4561359 35.91950286 16.45177156 42.07722147 16.44553804 48.23500025 C16.44148507 54.18560062 16.44680422 60.13619001 16.45207582 66.08678774 C16.46261923 78.26621622 16.46442984 90.44563087 16.46189499 102.62506294 C16.45848212 120.0272885 16.47182677 137.42947921 16.48866946 154.83169541 C16.49535117 161.81174394 16.50148968 168.79179298 16.50762367 175.771842 C16.50830767 176.54740043 16.50899166 177.32295886 16.50969639 178.12201905 C16.5258838 196.59346941 16.53671276 215.06492192 16.54589844 233.53637695 C16.54630447 234.34483909 16.54671051 235.15330122 16.54712884 235.98626221 C16.55655454 254.8443364 16.5634219 273.7024094 16.56585693 292.56048584 C16.56601678 293.77660207 16.56601678 293.77660207 16.56617985 295.01728631 C16.566713 299.10525078 16.56722775 303.19321525 16.56774123 307.28117972 C16.56789454 308.49303246 16.56789454 308.49303246 16.56805095 309.72936707 C16.56825651 311.36003872 16.56845907 312.99071036 16.56865862 314.621382 C16.57203909 341.56107749 16.58894921 368.50073816 16.62076016 395.44041552 C16.62523361 399.24488822 16.62952346 403.0493611 16.63368607 406.85383415 C16.63450652 407.6026019 16.63532698 408.35136966 16.6361723 409.12282734 C16.64892497 421.17717062 16.64692349 433.23146875 16.63905162 445.28581439 C16.63136972 457.40191993 16.63776803 469.51795027 16.65869068 481.63404084 C16.66960671 488.19910124 16.67349426 494.76403107 16.66021919 501.32909393 C16.64819073 507.33792044 16.65448424 513.34643736 16.67541118 519.35523688 C16.6797226 521.53028657 16.67725727 523.70536232 16.66737001 525.88039381 C16.65490885 528.83598425 16.66704859 531.79050356 16.68527794 534.7460413 C16.67106483 536.01405191 16.67106483 536.01405191 16.65656459 537.30767891 C16.73085602 543.27958529 17.92364222 548.24408029 21.1875 553.3125 C25.45231095 557.15950849 28.63959788 557.813362 34.29767418 557.82030869 C34.99345371 557.82661244 35.68923324 557.83291619 36.40609699 557.83941096 C38.73716459 557.85567183 41.06720435 557.84350859 43.39828491 557.83148193 C45.08638857 557.83735747 46.77448689 557.84498466 48.46257555 557.854213 C53.10095531 557.87449747 57.73902965 557.86991302 62.37743354 557.86130548 C67.37945502 557.85636683 72.38139918 557.87443783 77.38339233 557.88972473 C86.04955176 557.91305576 94.71562746 557.92178444 103.38181686 557.92061615 C115.91167671 557.91894808 128.44142483 557.9392698 140.9712549 557.96497145 C161.29967881 558.00607211 181.62808265 558.02937036 201.95654297 558.04150391 C221.70460948 558.05332908 241.45263818 558.07351943 261.20068359 558.10498047 C262.41780145 558.10691657 263.6349193 558.10885267 264.88891952 558.11084744 C270.99479701 558.1206119 277.10067422 558.13054103 283.20655131 558.14055204 C333.86684899 558.22340006 384.5271483 558.27736946 435.1875 558.3125 C438.2874837 564.28467318 438.67430313 568.42898801 438.625 575.0625 C438.64498047 576.0009375 438.66496094 576.939375 438.68554688 577.90625 C438.67883163 587.62992876 435.79950374 595.5118186 429.12109375 602.62109375 C422.8389756 608.11636074 416.18724612 609.43420475 408.04459381 609.4523077 C407.32094965 609.45525912 406.5973055 609.45821055 405.85173273 609.46125141 C403.41404287 609.46994992 400.97640041 609.47152373 398.53869629 609.47312927 C396.77838068 609.47785975 395.01806616 609.48301059 393.2577529 609.48854691 C388.41008655 609.50246312 383.56242772 609.51003946 378.71474648 609.5165199 C374.55926546 609.52288853 370.40379681 609.53295897 366.2483235 609.54308056 C352.556433 609.57641369 338.86453498 609.59792775 325.1726172 609.61628041 C321.6075547 609.62107518 318.04249252 609.62605853 314.47743034 609.63108563 C292.34092938 609.66205669 270.2044258 609.68874333 248.06790924 609.70550442 C242.93980403 609.70945395 237.81169887 609.71345694 232.68359375 609.7175293 C231.40902036 609.71853766 230.13444697 609.71954602 228.82125014 609.72058494 C208.17546625 609.73759063 187.52980225 609.77869842 166.88407689 609.82955229 C145.68938009 609.88132905 124.49474493 609.91044677 103.29998541 609.9177013 C91.39918883 609.92236347 79.49858858 609.93711406 67.59785461 609.9774456 C57.46210844 610.0117538 47.32659401 610.02568162 37.1907931 610.01302146 C32.02061039 610.00719652 26.85091777 610.01104737 21.68080902 610.0411911 C16.94298518 610.06858859 12.20599879 610.06802843 7.46815604 610.04568065 C5.75877432 610.04246285 4.04933618 610.04929606 2.34004813 610.06747787 C-7.78243915 610.16858061 -16.26032541 609.41250638 -24.8125 603.3125 C-27.24131696 600.8112812 -29.11777835 598.35516857 -30.8125 595.3125 C-31.32406759 594.47666014 -31.83563518 593.64082028 -32.36270481 592.77965194 C-34.24329335 588.28226758 -34.22914594 584.53638938 -34.19281673 579.71306896 C-34.19747665 578.74815764 -34.20213657 577.78324631 -34.2069377 576.78909525 C-34.21892724 573.54262449 -34.2094768 570.29656917 -34.20018005 567.0500946 C-34.20435123 564.7043165 -34.20982756 562.35854041 -34.21649987 560.01276809 C-34.22948013 554.23356827 -34.22845003 548.45448832 -34.22153748 542.6752808 C-34.21402859 535.75302874 -34.22388967 528.83082911 -34.23424067 521.90858463 C-34.25392177 508.34478098 -34.25625218 494.78101553 -34.25104547 481.21720101 C-34.24649051 469.34550259 -34.2470847 457.47381929 -34.25288582 445.60212135 C-34.25364268 444.01043539 -34.25439866 442.41874943 -34.25515376 440.82706347 C-34.25629894 438.42860207 -34.25744882 436.03014066 -34.25861301 433.63167926 C-34.26932056 411.3280712 -34.27404071 389.02446818 -34.26614285 366.72085857 C-34.26584567 365.87983415 -34.2655485 365.03880972 -34.26524232 364.17229971 C-34.26279332 357.34235278 -34.26018177 350.51240592 -34.25755819 343.68245906 C-34.24745669 317.04324629 -34.25580828 290.40409655 -34.27905273 263.76489258 C-34.30512047 233.84159497 -34.31797445 203.91833532 -34.31086498 173.99502593 C-34.31014891 170.80479261 -34.30947453 167.61455928 -34.30882454 164.42432594 C-34.30865473 163.63879913 -34.30848492 162.85327231 -34.30830997 162.04394166 C-34.30600615 150.18166641 -34.31398797 138.31942639 -34.32711601 126.45715904 C-34.34201911 112.96685191 -34.34288146 99.47662735 -34.3250451 85.98632201 C-34.31631684 79.10123365 -34.31392165 72.21628913 -34.32969666 65.33120918 C-34.34348393 59.03018398 -34.33885722 52.72945256 -34.31945742 46.4284446 C-34.31567876 44.14718773 -34.31867271 41.86590765 -34.32906907 39.58467134 C-34.34218853 36.48591047 -34.33069979 33.38817111 -34.31307125 30.28945446 C-34.32272176 29.40194011 -34.33237227 28.51442576 -34.34231523 27.60001704 C-34.25800508 20.39144262 -32.26003004 14.57250909 -27.91796875 8.7890625 C-27.28503906 8.17804687 -26.65210938 7.56703125 -26 6.9375 C-25.06220703 5.99777344 -25.06220703 5.99777344 -24.10546875 5.0390625 C-16.53368426 -0.66234933 -9.20185086 -0.11271253 0 0 Z " fill="#0B1F5B" transform="translate(556.8125,760.6875)"/>
<path d="M0 0 C2.9375 1.125 2.9375 1.125 4.9375 3.125 C5.39538089 7.12191864 5.35654864 9.40576748 3.3125 12.9140625 C2.52875 13.84992187 1.745 14.78578125 0.9375 15.75 C0.0140455 16.8841324 -0.90770816 18.01965096 -1.828125 19.15625 C-2.34181641 19.78144531 -2.85550781 20.40664063 -3.38476562 21.05078125 C-6.61735346 25.04729845 -9.70427431 29.15655779 -12.8125 33.25 C-13.49666992 34.14759033 -14.18083984 35.04518066 -14.88574219 35.9699707 C-20.59428371 43.47096215 -26.19298849 51.04911687 -31.76953125 58.6484375 C-36.28762093 64.801683 -40.87638135 70.9013724 -45.46582031 77.00146484 C-48.43948813 80.95635211 -51.40668258 84.91609648 -54.375 88.875 C-55.64841137 90.57293627 -56.92184905 92.2708528 -58.1953125 93.96875 C-58.83243164 94.81824219 -59.46955078 95.66773438 -60.12597656 96.54296875 C-65.9296875 104.28125 -65.9296875 104.28125 -67.84667969 106.8371582 C-69.11305995 108.52571937 -70.37933641 110.21435839 -71.64550781 111.90307617 C-74.48783024 115.69370885 -77.3312428 119.48349637 -80.1796875 123.26953125 C-81.16160115 124.57541346 -82.14337439 125.88140126 -83.125 127.1875 C-83.84490112 128.145354 -83.84490112 128.145354 -84.5793457 129.12255859 C-87.80486813 133.42361385 -90.99283283 137.7509684 -94.16992188 142.08789062 C-99.38582972 149.20573172 -104.674949 156.24701144 -110.125 163.1875 C-115.25909404 169.7282049 -120.18588813 176.38564501 -125.01879883 183.15112305 C-131.27061257 191.87113129 -137.82043359 200.3619561 -144.34570312 208.87792969 C-146.43601205 211.61388011 -148.50294681 214.36582759 -150.5625 217.125 C-155.32094283 223.49385273 -160.15209581 229.8069256 -164.97509766 236.12695312 C-169.15430084 241.60781111 -173.31063224 247.10464443 -177.4375 252.625 C-182.58380762 259.50705975 -187.80838102 266.32505502 -193.0625 273.125 C-194.31185823 274.74739635 -195.56025746 276.370526 -196.80834961 277.99389648 C-197.64215127 279.07830935 -198.47629658 280.16245806 -199.31079102 281.24633789 C-201.41169423 283.97533348 -203.50842595 286.70736775 -205.59765625 289.4453125 C-226.50076634 316.81114205 -226.50076634 316.81114205 -237.37890625 318.48046875 C-244.17886575 318.87420662 -249.46062336 316.93804208 -255.0625 313.125 C-263.32979266 305.32937538 -270.7650541 296.61364277 -277.8828125 287.7734375 C-280.04007399 285.15224881 -282.27561 282.63345719 -284.5625 280.125 C-288.48141252 275.82508209 -292.15420869 271.36580453 -295.8125 266.84375 C-297.99751569 264.20352271 -300.25421391 261.6577028 -302.5625 259.125 C-306.40808741 254.90083145 -310.02980971 250.53546927 -313.625 246.09765625 C-316.33141072 242.79704959 -319.09291305 239.54930809 -321.875 236.3125 C-322.37918457 235.725896 -322.88336914 235.13929199 -323.40283203 234.53491211 C-324.95511422 232.7307956 -326.50857839 230.92770456 -328.0625 229.125 C-343.29014475 211.45940837 -343.29014475 211.45940837 -349.0625 204.125 C-349.47725586 203.62145996 -349.89201172 203.11791992 -350.31933594 202.59912109 C-355.84121576 195.84530946 -359.46488471 190.15483533 -358.73828125 181.12109375 C-356.40321747 170.76852773 -346.46239214 162.14627234 -338.25 156 C-332.89461758 152.97540142 -326.99008872 153.11760192 -321.0625 154.125 C-317.54615225 155.59567374 -314.9186758 157.62391632 -312.0625 160.125 C-311.27488281 160.81335938 -310.48726562 161.50171875 -309.67578125 162.2109375 C-307.99498172 163.71494964 -306.32722894 165.23365148 -304.671875 166.765625 C-302.00185529 169.17983444 -299.24650431 171.43719268 -296.4375 173.6875 C-292.34334775 176.99852327 -288.60533517 180.47440456 -284.93359375 184.2421875 C-280.85809914 188.34320712 -276.38415334 192.00752955 -271.97265625 195.73828125 C-270.81481764 196.72101669 -269.65727635 197.7041025 -268.5 198.6875 C-267.90960937 199.18693115 -267.31921875 199.6863623 -266.7109375 200.20092773 C-263.36589039 203.05785829 -260.12736954 205.98844371 -256.96484375 209.046875 C-256.29203369 209.69454834 -255.61922363 210.34222168 -254.92602539 211.00952148 C-253.61897619 212.27677349 -252.32218688 213.55471003 -251.03686523 214.84399414 C-250.14849976 215.70432251 -250.14849976 215.70432251 -249.2421875 216.58203125 C-248.72382324 217.09741455 -248.20545898 217.61279785 -247.67138672 218.14379883 C-246.11242763 219.32078158 -246.11242763 219.32078158 -244.23269653 218.91421509 C-235.01745457 215.56299418 -226.24082885 203.40814945 -219.39898682 196.50608635 C-217.33374835 194.4232404 -215.2647994 192.34414447 -213.19482422 190.26600647 C-207.31809127 184.36498658 -201.44728125 178.45809842 -195.58056641 172.54711914 C-191.97469296 168.91455271 -188.36403459 165.28680062 -184.75033569 161.66201973 C-183.3768647 160.28232982 -182.00529551 158.90074403 -180.63565063 157.51725578 C-178.73293466 155.59544499 -176.82424984 153.67976133 -174.9140625 151.76538086 C-174.34786697 151.19042374 -173.78167145 150.61546661 -173.19831848 150.02308655 C-169.29040036 146.125 -169.29040036 146.125 -167.0625 146.125 C-166.81886719 145.54363281 -166.57523438 144.96226562 -166.32421875 144.36328125 C-164.83544653 141.72220855 -163.18606738 140.27516526 -160.875 138.3125 C-156.1994071 134.22050796 -151.80385311 129.91949551 -147.4375 125.5 C-143.02781698 121.04549868 -138.60852365 116.70706317 -133.81640625 112.66015625 C-131.09163616 110.27522386 -128.59804431 107.66889588 -126.05859375 105.08984375 C-124.14142823 103.20269256 -122.16674678 101.43814625 -120.125 99.6875 C-116.39633127 96.48420142 -112.95310703 93.05839494 -109.53125 89.53125 C-106.83478701 86.90305189 -104.0199234 84.45243004 -101.17675781 81.98535156 C-97.77044034 78.98810686 -94.48329875 75.86763655 -91.1875 72.75 C-81.89160307 64.00312392 -72.41673037 55.51358109 -62.703125 47.234375 C-60.30825863 45.19297554 -57.92316429 43.14111581 -55.546875 41.078125 C-49.30534685 35.66903378 -42.98412139 30.41120184 -36.4597168 25.34619141 C-32.57521646 22.32797955 -28.74619775 19.25070477 -24.94262695 16.13110352 C-22.27149653 13.94316731 -19.58670305 11.77255249 -16.89746094 9.60693359 C-15.72727482 8.66187908 -14.56083674 7.71215147 -13.39941406 6.75634766 C-4.55932808 -0.48583004 -4.55932808 -0.48583004 0 0 Z " fill="#6DC0FE" transform="translate(1130.0625,860.875)"/>
<path d="M0 0 C1.58071289 -0.01836914 1.58071289 -0.01836914 3.19335938 -0.03710938 C4.20333984 -0.03904297 5.21332031 -0.04097656 6.25390625 -0.04296875 C7.17631104 -0.04707764 8.09871582 -0.05118652 9.04907227 -0.05541992 C11.4375 0.1875 11.4375 0.1875 14.4375 2.1875 C14.73520589 4.81951312 14.83408101 7.2170436 14.80664349 9.85184669 C14.81183579 11.05827448 14.81183579 11.05827448 14.81713298 12.28907454 C14.82514167 15.01318068 14.81155918 17.73676626 14.79826355 20.46084595 C14.79957046 22.4218535 14.80219476 24.38286056 14.80603105 26.3438648 C14.81277051 31.75516002 14.80069599 37.16627866 14.78569686 42.57755136 C14.77279041 48.4044283 14.77712213 54.23129457 14.77940369 60.05818176 C14.78097985 70.16115317 14.77153491 80.26406664 14.75469017 90.36702347 C14.73035106 104.97435086 14.72249009 119.58165583 14.7187262 134.18900053 C14.71242067 157.88610724 14.69219663 181.58318375 14.66381836 205.28027344 C14.63627664 228.3053369 14.61502013 251.33039212 14.60229492 274.35546875 C14.60190034 275.06488226 14.60150576 275.77429576 14.60109923 276.50520665 C14.59714376 283.62926231 14.5933163 290.75331804 14.58958265 297.87737382 C14.58197349 312.3906109 14.57350973 326.90384744 14.56452942 341.41708374 C14.56411755 342.0844164 14.56370568 342.75174906 14.56328133 343.43930392 C14.5356674 388.02204855 14.48806813 432.60477625 14.4375 477.1875 C8.85565421 479.53145529 4.12861722 479.51898677 -1.875 479.5 C-2.88240234 479.51611328 -3.88980469 479.53222656 -4.92773438 479.54882812 C-13.56274022 479.55445354 -20.42630999 478.02923871 -26.95703125 472.06640625 C-32.79718333 465.23158107 -34.68475355 457.71565443 -34.69672108 448.96092033 C-34.69907331 448.22823512 -34.70142554 447.4955499 -34.70384905 446.7406621 C-34.71053468 444.27223283 -34.71008096 441.80385626 -34.70967102 439.3354187 C-34.71296991 437.55305403 -34.71669554 435.77069011 -34.7208125 433.98832715 C-34.73083767 429.07978809 -34.73455013 424.17126127 -34.73720181 419.26271343 C-34.74110331 413.97283088 -34.75068173 408.68295803 -34.75941467 403.39308167 C-34.77918311 390.61298213 -34.78924563 377.8328818 -34.79814246 365.05277079 C-34.80252461 359.03603577 -34.8078916 353.01930162 -34.81313133 347.00256729 C-34.83014374 327.00455597 -34.84463838 307.0065452 -34.85188007 287.00852776 C-34.85379 281.81818516 -34.85571033 276.62784258 -34.85766602 271.4375 C-34.85814976 270.14744891 -34.8586335 268.85739783 -34.8591319 267.52825429 C-34.86743393 246.62572355 -34.89277373 225.72325001 -34.92524669 204.82074426 C-34.95830593 183.36615275 -34.9763278 161.91159032 -34.97952431 140.4569732 C-34.98169042 128.40873743 -34.99045395 116.36058508 -35.01598549 104.31237411 C-35.03767692 94.05253542 -35.04575053 83.79280041 -35.03601871 73.53294139 C-35.03146957 68.29830489 -35.03339608 63.06388237 -35.05278015 57.82927513 C-35.07038045 53.03496023 -35.06943945 48.24101592 -35.05388286 43.44669725 C-35.05150204 41.71447897 -35.05585488 39.98223523 -35.06771151 38.25005589 C-35.1458878 26.07237254 -34.18024388 16.12332413 -25.49609375 6.87890625 C-17.87594265 0.21319832 -9.66495638 0.00593306 0 0 Z " fill="#0A1E5A" transform="translate(486.5625,829.8125)"/>
<path d="M0 0 C1.58167969 -0.01160156 1.58167969 -0.01160156 3.1953125 -0.0234375 C19.87478084 0.01784831 19.87478084 0.01784831 25.875 4.4375 C30.96699418 10.16599345 30.71807903 17.17883202 30.9375 24.5 C30.99747143 26.27617514 31.0611139 28.05223117 31.12890625 29.828125 C31.15283447 30.60575195 31.1767627 31.38337891 31.20141602 32.18457031 C31.30989724 34.44747038 31.30989724 34.44747038 32.375 37.25 C35.45711128 38.79105564 38.71043662 38.40688912 42.09375 38.42578125 C43.68230452 38.44900652 45.27084619 38.47312489 46.859375 38.49804688 C49.3562038 38.53294196 51.85256815 38.56237828 54.34960938 38.57592773 C66.12587924 38.65229022 76.16565243 39.36047189 85.90625 46.7578125 C91.15643792 52.09178001 92.49750649 59.14396857 92.55200195 66.33251953 C92.55857315 67.05001877 92.56514435 67.76751801 92.57191467 68.50675964 C92.59162806 70.88211172 92.60330851 73.25740049 92.61328125 75.6328125 C92.61735678 76.4462701 92.6214323 77.25972771 92.62563133 78.09783554 C92.64648801 82.40701798 92.66078904 86.71616865 92.67016602 91.02539062 C92.6812038 95.46045388 92.71557401 99.89501173 92.75533772 104.32989693 C92.78158356 107.75303022 92.78986509 111.17604482 92.79344749 114.59926987 C92.79829628 116.23302482 92.80986121 117.86677507 92.82848549 119.50043106 C92.93428673 129.3996728 92.92212186 137.92197706 86.19140625 145.80859375 C85.44761719 146.42863281 84.70382812 147.04867187 83.9375 147.6875 C82.82568359 148.64462891 82.82568359 148.64462891 81.69140625 149.62109375 C77.25376652 152.74165997 73.51752234 153.50088586 68.13298035 153.51742554 C66.24682762 153.53022049 66.24682762 153.53022049 64.3225708 153.54327393 C62.93664538 153.54257496 61.55072006 153.54165193 60.16479492 153.54052734 C58.69922036 153.54651445 57.23364895 153.55332042 55.76808167 153.56088257 C51.79274386 153.5785323 47.81749218 153.58323754 43.84211898 153.58451414 C41.35634389 153.585937 38.87059061 153.59020917 36.38482094 153.59550858 C27.70664711 153.61400618 19.02853468 153.62217962 10.3503418 153.62060547 C2.27109145 153.61940447 -5.80789157 153.64049919 -13.88707429 153.6720928 C-20.83162908 153.69827811 -27.77609669 153.70897181 -34.72070044 153.70769465 C-38.86476174 153.70718563 -43.00858546 153.71283513 -47.15259743 153.73405075 C-51.05234344 153.75347106 -54.9516262 153.75353206 -58.85138893 153.73901749 C-60.27837809 153.73693289 -61.70539653 153.74160949 -63.13233566 153.7537384 C-72.30770385 153.82664443 -78.43651749 153.27222184 -85.83203125 147.5390625 C-86.62673828 146.71535156 -86.62673828 146.71535156 -87.4375 145.875 C-87.98019531 145.33101562 -88.52289062 144.78703125 -89.08203125 144.2265625 C-98.5034458 132.1576112 -94.84357284 110.36187027 -94.86523438 95.88745117 C-94.87502023 91.92931726 -94.90616296 87.97168631 -94.9375 84.01367188 C-94.94402463 81.4713572 -94.94927722 78.92903888 -94.953125 76.38671875 C-94.9654718 75.21670822 -94.9778186 74.04669769 -94.99053955 72.8412323 C-94.96472411 63.2755291 -93.67774737 54.62311646 -87.49609375 47.0078125 C-80.11646098 40.07496335 -71.07056953 39.15399039 -61.3828125 38.93359375 C-60.61444061 38.91281265 -59.84606873 38.89203156 -59.05441284 38.87062073 C-56.61969233 38.80566531 -54.18487153 38.74649362 -51.75 38.6875 C-50.0911358 38.6442633 -48.43228144 38.60064743 -46.7734375 38.55664062 C-42.72405896 38.45003997 -38.67458037 38.3486233 -34.625 38.25 C-34.58012451 37.49380371 -34.53524902 36.73760742 -34.48901367 35.95849609 C-34.27693962 32.51301909 -34.04491689 29.06916209 -33.8125 25.625 C-33.74224609 24.43519531 -33.67199219 23.24539063 -33.59960938 22.01953125 C-33.51904297 20.86582031 -33.43847656 19.71210937 -33.35546875 18.5234375 C-33.25335083 16.93668213 -33.25335083 16.93668213 -33.14916992 15.31787109 C-32.38174044 10.82624609 -30.6497051 7.43998011 -27.6875 4 C-19.62177326 -0.60898671 -9.05316301 -0.06689529 0 0 Z " fill="#FFE4B0" transform="translate(829.625,619.75)"/>
<path d="M0 0 C0.88572518 0.00021737 1.77145036 0.00043474 2.68401569 0.00065869 C3.7045326 -0.0039401 4.7250495 -0.0085389 5.77649117 -0.01327705 C7.47096481 -0.00556171 7.47096481 -0.00556171 9.19967026 0.0023095 C10.39307083 -0.00010491 11.5864714 -0.00251933 12.81603563 -0.00500691 C16.13892912 -0.0096834 19.46159362 -0.00533516 22.78446633 0.00275737 C26.36390157 0.00931739 29.9433229 0.00438963 33.52275985 0.00087517 C40.53867668 -0.00417464 47.55454648 0.00148447 54.57045747 0.01072548 C62.73275555 0.02109146 70.89504338 0.02103977 79.05734681 0.0205529 C93.61565709 0.02005189 108.17394542 0.02922439 122.73224777 0.04373711 C136.87450444 0.05782789 151.0167418 0.06490781 165.15900558 0.06424493 C166.03011744 0.06420497 166.9012293 0.06416501 167.79873849 0.06412385 C168.66831138 0.06408349 169.53788427 0.06404314 170.43380785 0.06400156 C186.51250871 0.06331252 202.59120132 0.06919686 218.66989951 0.07815478 C224.36614398 0.08117686 230.06238694 0.08223501 235.75863212 0.08268708 C242.69494307 0.08336774 249.63124013 0.08781187 256.56754518 0.09701989 C260.10987894 0.10165112 263.65219487 0.10467853 267.19453186 0.10342568 C271.02576721 0.10213631 274.85696644 0.10855215 278.68819565 0.11583489 C279.82007547 0.11428629 280.95195529 0.11273769 282.1181345 0.11114216 C283.64499824 0.11597883 283.64499824 0.11597883 285.20270771 0.12091321 C286.53105195 0.12196984 286.53105195 0.12196984 287.88623142 0.12304783 C289.88044113 0.24954766 289.88044113 0.24954766 290.88044113 1.24954766 C290.978581 2.68695119 291.00842393 4.12911093 291.00983566 5.56986016 C291.01298782 6.48751153 291.01613998 7.40516289 291.01938766 8.35062188 C291.01635132 9.84746514 291.01635132 9.84746514 291.01325363 11.37454766 C291.01468872 12.90039483 291.01468872 12.90039483 291.0161528 14.45706719 C291.01683474 16.61250402 291.01497948 18.76794288 291.01081222 20.92337579 C291.00546418 24.23527137 291.01075676 27.54703133 291.01715988 30.85892266 C291.0164991 32.94746463 291.01521794 35.03600651 291.01325363 37.12454766 C291.01527786 38.12244317 291.01730209 39.12033868 291.01938766 40.14847344 C291.0162355 41.06612481 291.01308334 41.98377618 291.00983566 42.92923516 C291.00864227 44.14715752 291.00864227 44.14715752 291.00742477 45.38968438 C290.88044113 47.24954766 290.88044113 47.24954766 289.88044113 48.24954766 C288.31659538 48.34651958 286.74835298 48.37326423 285.18150371 48.37259549 C283.64756478 48.37558206 283.64756478 48.37558206 282.08263719 48.37862897 C280.37693468 48.37425971 280.37693468 48.37425971 278.63677353 48.36980218 C277.43943826 48.3706566 276.24210299 48.37151103 275.00848484 48.37239134 C271.67006144 48.37375955 268.33169595 48.37061201 264.99327952 48.36561328 C261.39885314 48.36131214 257.80442868 48.36275496 254.21000046 48.36351556 C247.97743118 48.36404101 241.74487233 48.36089202 235.51230568 48.35527772 C226.50095774 48.34716555 217.48961487 48.34454779 208.47826368 48.34328973 C193.85947166 48.34109876 179.24068521 48.33443747 164.62189621 48.32498711 C150.41746941 48.31581415 136.21304412 48.30873275 122.00861496 48.3044793 C121.13368798 48.30421658 120.258761 48.30395385 119.35732108 48.30368317 C114.96825884 48.30237817 110.5791966 48.30111445 106.19013435 48.29987127 C69.75356601 48.28949726 33.317004 48.27187774 -3.11955887 48.24954766 C-3.31286191 41.73540721 -3.49033899 35.2209753 -3.65666825 28.70609063 C-3.71517017 26.48854278 -3.77733328 24.27108844 -3.84319168 22.05374688 C-3.93707147 18.87179113 -4.01790213 15.68973451 -4.09612137 12.50736016 C-4.12831772 11.51148888 -4.16051407 10.51561761 -4.19368607 9.48956841 C-4.21385788 8.56876488 -4.2340297 7.64796136 -4.25481278 6.69925469 C-4.27701889 5.88651086 -4.29922501 5.07376702 -4.32210404 4.23639458 C-4.01966065 1.26960585 -2.92166101 0.34398368 0 0 Z " fill="#6EC1FF" transform="translate(688.1195588707924,895.7504523396492)"/>
<path d="M0 0 C3.19908347 -0.05614603 6.39816116 -0.09537801 9.5975647 -0.12788391 C11.00387796 -0.14522477 12.41012696 -0.16936713 13.81619263 -0.20094299 C23.46960963 -0.41036478 32.58662461 0.46145759 40.6133728 6.34571838 C46.99275727 13.18077317 49.36207572 20.0023832 49.36535645 29.25942993 C49.36958618 31.099048 49.36958618 31.099048 49.37390137 32.97583008 C49.37195717 34.32707229 49.36990901 35.67831436 49.36776733 37.02955627 C49.3691231 38.45908147 49.37090402 39.88860631 49.37307739 41.31813049 C49.37763371 45.19662434 49.37586879 49.07509156 49.37269831 52.95358586 C49.37016199 57.02256545 49.37251611 61.09154279 49.37408447 65.16052246 C49.3759039 72.00082303 49.37350731 78.84111281 49.3687439 85.68141174 C49.36331694 93.5650749 49.36505342 101.44871212 49.3705703 109.33237463 C49.37512612 116.11647323 49.37573948 122.90056408 49.37313163 129.68466371 C49.37158044 133.72927457 49.37134282 137.7738733 49.37466812 141.81848335 C49.37758225 145.62946136 49.37550684 149.44040643 49.36977386 153.25138092 C49.36846444 154.64120619 49.36880899 156.03103428 49.37103653 157.42085838 C49.40612025 181.55895169 49.40612025 181.55895169 45.9024353 185.41993713 C44.89954468 186.22044495 43.89665405 187.02095276 42.8633728 187.84571838 C42.32172485 188.29519836 41.7800769 188.74467834 41.22201538 189.20777893 C39.58414434 190.5572739 37.9166817 191.85956921 36.2383728 193.15821838 C34.46482491 194.5923679 32.69387126 196.02973317 30.9258728 197.47071838 C30.04028687 198.18228088 29.15470093 198.89384338 28.24227905 199.62696838 C23.82474577 203.34941516 19.63944997 207.30860497 15.45199585 211.28639221 C6.09082736 220.15821838 6.09082736 220.15821838 2.2383728 220.15821838 C2.2383728 163.72821838 2.2383728 107.29821838 2.2383728 49.15821838 C-20.5316272 49.15821838 -43.3016272 49.15821838 -66.7616272 49.15821838 C-68.7616272 47.15821838 -68.7616272 47.15821838 -69.00886536 45.21606445 C-69.00744034 44.42410172 -69.00601532 43.63213898 -69.00454712 42.81617737 C-69.00762375 41.91862228 -69.01070038 41.0210672 -69.01387024 40.09631348 C-69.00668472 39.12545303 -68.99949921 38.15459259 -68.99209595 37.15431213 C-68.99163773 36.16069168 -68.9911795 35.16707123 -68.9907074 34.14334106 C-68.98768329 32.04094754 -68.97979229 29.9385563 -68.96743774 27.8361969 C-68.94918285 24.60556669 -68.946928 21.3752229 -68.94717407 18.14454651 C-68.942259 16.10613255 -68.93643073 14.06772055 -68.92959595 12.02931213 C-68.92848312 11.05642746 -68.9273703 10.08354279 -68.92622375 9.08117676 C-68.9198439 8.18677383 -68.91346405 7.29237091 -68.90689087 6.37086487 C-68.90307907 5.57969772 -68.89926727 4.78853058 -68.89533997 3.97338867 C-68.7616272 2.15821838 -68.7616272 2.15821838 -67.7616272 1.15821838 C-66.10675726 1.03498086 -64.44673174 0.98032391 -62.7875061 0.95289612 C-61.71815826 0.93297607 -60.64881042 0.91305603 -59.54705811 0.89253235 C-58.37263153 0.87579468 -57.19820496 0.85905701 -55.9881897 0.84181213 C-54.77356049 0.82080444 -53.55893127 0.79979675 -52.30749512 0.77815247 C-48.33393974 0.71140823 -44.36033172 0.65262994 -40.3866272 0.59571838 C-39.03140171 0.57572743 -37.6761771 0.55567741 -36.32095337 0.53556824 C-29.59585107 0.43648538 -22.87069269 0.34427217 -16.14541626 0.25782776 C-10.76322724 0.18788669 -5.38168897 0.10073457 0 0 Z " fill="#1A57E8" transform="translate(1017.7616271972656,691.8417816162109)"/>
<path d="M0 0 C3.27075883 -0.0580476 6.54138524 -0.09361165 9.8125 -0.125 C10.74126953 -0.14175781 11.67003906 -0.15851562 12.62695312 -0.17578125 C13.51962891 -0.18222656 14.41230469 -0.18867187 15.33203125 -0.1953125 C16.15421143 -0.20578613 16.9763916 -0.21625977 17.82348633 -0.22705078 C20 0 20 0 23 2 C23.29770589 4.63201312 23.39658101 7.0295436 23.36914349 9.66434669 C23.37433579 10.87077448 23.37433579 10.87077448 23.37963298 12.10157454 C23.38764167 14.82568068 23.37405918 17.54926626 23.36076355 20.27334595 C23.36207046 22.2343535 23.36469476 24.19536056 23.36853105 26.1563648 C23.37527051 31.56766002 23.36319599 36.97877866 23.34819686 42.39005136 C23.33529041 48.2169283 23.33962213 54.04379457 23.34190369 59.87068176 C23.34347985 69.97365317 23.33403491 80.07656664 23.31719017 90.17952347 C23.29285106 104.78685086 23.28499009 119.39415583 23.2812262 134.00150053 C23.27492067 157.69860724 23.25469663 181.39568375 23.22631836 205.09277344 C23.19877664 228.1178369 23.17752013 251.14289212 23.16479492 274.16796875 C23.16420305 275.23208901 23.16420305 275.23208901 23.16359923 276.31770665 C23.15964376 283.44176231 23.1558163 290.56581804 23.15208265 297.68987382 C23.14447349 312.2031109 23.13600973 326.71634744 23.12702942 341.22958374 C23.12661755 341.8969164 23.12620568 342.56424906 23.12578133 343.25180392 C23.0981674 387.83454855 23.05056813 432.41727625 23 477 C18.37183267 479.35582065 14.24465865 479.23521469 9.1875 479.125 C8.39923828 479.11597656 7.61097656 479.10695313 6.79882812 479.09765625 C4.86575334 479.07422504 2.9328362 479.03835838 1 479 C1.10520084 426.59210605 1.2151066 374.18422372 1.33111694 321.77635253 C1.34488264 315.5558985 1.35861031 309.3354444 1.37231445 303.11499023 C1.37504276 301.87687434 1.37777106 300.63875844 1.38058204 299.36312389 C1.42437415 279.44916838 1.46510321 259.53520776 1.50465261 239.62124342 C1.545458 219.11010542 1.58966544 198.59897668 1.63687855 178.08785242 C1.66322852 166.59980662 1.68810789 155.11176191 1.70907402 143.62370491 C1.79536946 96.74101106 1.89761254 49.8719359 3 3 C2.01 3 1.02 3 0 3 C0 2.01 0 1.02 0 0 Z " fill="#081644" transform="translate(478,830)"/>
<path d="M0 0 C1.90349464 -0.05314362 1.90349464 -0.05314362 3.84544373 -0.10736084 C8.91889868 -0.22129199 13.99285179 -0.30384239 19.06722164 -0.36397934 C22.91564885 -0.41003213 26.76100551 -0.47709849 30.60791016 -0.59667969 C34.33119753 -0.71199076 38.05173905 -0.7719663 41.77670479 -0.79450226 C43.18947691 -0.81217375 44.60215577 -0.84877518 46.01389885 -0.90550995 C52.23314841 -1.1434652 57.10514043 -1.25664472 62.13763428 2.68301392 C64.67130238 5.44279512 66.90528335 8.23968233 69.07836914 11.28808594 C70.0598518 12.5190511 71.0451645 13.7470094 72.03930664 14.96777344 C72.8471372 16.03049572 73.65187609 17.09557587 74.45336914 18.16308594 C78.66086574 23.65175533 83.13730457 28.77806192 87.93139648 33.76220703 C97.07836914 43.36196898 97.07836914 43.36196898 97.07836914 48.28808594 C63.08836914 48.28808594 29.09836914 48.28808594 -5.92163086 48.28808594 C-7.09373702 45.94387361 -7.0484017 44.55776359 -7.05102539 41.94604492 C-7.05417755 41.04848984 -7.05732971 40.15093475 -7.06057739 39.22618103 C-7.05754105 37.76989037 -7.05754105 37.76989037 -7.05444336 36.28417969 C-7.05540009 35.29055923 -7.05635681 34.29693878 -7.05734253 33.27320862 C-7.05802372 31.17082659 -7.05617366 29.06844246 -7.05200195 26.96606445 C-7.04664724 23.73546666 -7.05195191 20.50500754 -7.05834961 17.27441406 C-7.05768893 15.2360023 -7.05640797 13.19759061 -7.05444336 11.15917969 C-7.05646759 10.18629501 -7.05849182 9.21341034 -7.06057739 8.21104431 C-7.05742523 7.31664139 -7.05427307 6.42223846 -7.05102539 5.50073242 C-7.0502298 4.70956528 -7.0494342 3.91839813 -7.0486145 3.10325623 C-6.76485259 -0.95298427 -3.35523556 0.09254826 0 0 Z " fill="#1956E7" transform="translate(690.921630859375,1068.7119140625)"/>
<path d="M0 0 C0.66 0.33 1.32 0.66 2 1 C0.56877218 2.48523642 -0.87020889 3.96300462 -2.3125 5.4375 C-3.11300781 6.26121094 -3.91351562 7.08492187 -4.73828125 7.93359375 C-7 10 -7 10 -10 11 C-8.67367286 5.36310966 -4.53368235 3.06814317 0 0 Z " fill="#1444B6" transform="translate(610,695)"/>
</svg>
