<svg width="752" height="752" viewBox="0 0 752 752" xmlns="http://www.w3.org/2000/svg">
  <!-- Solid Black Background for PWA compatibility and OLED screens -->
  <rect width="752" height="752" fill="#000000" />
  
  <!-- Scaled-down and Centered Logo to Fit Safely Inside PWA Maskable Zone -->
  <g transform="translate(150.4, 150.4) scale(0.6)">
    <path d="M210.136 72.6407C211.42 72.6381 211.42 72.6381 212.729 72.6354C215.555 72.631 218.381 72.6339 221.206 72.6373C223.169 72.6366 225.131 72.6356 227.094 72.6344C231.204 72.6329 235.315 72.635 239.425 72.6397C244.703 72.6454 249.98 72.6421 255.257 72.6361C259.308 72.6325 263.359 72.6337 267.41 72.6363C269.356 72.6369 271.303 72.6361 273.249 72.6338C275.964 72.631 278.679 72.6351 281.394 72.6407C282.204 72.6387 283.013 72.6366 283.847 72.6346C289.407 72.6558 289.407 72.6558 291.636 73.7701C291.661 80.4453 291.679 87.1205 291.691 93.7957C291.696 96.0685 291.703 98.3413 291.711 100.614C291.723 103.873 291.729 107.132 291.733 110.391C291.739 111.414 291.744 112.437 291.749 113.491C291.749 114.432 291.749 115.373 291.749 116.342C291.752 117.175 291.754 118.008 291.756 118.866C291.636 120.77 291.636 120.77 290.636 121.77C269.516 122.1 248.396 122.43 226.636 122.77C226.636 290.08 226.636 457.39 226.636 629.77C268.216 629.44 309.796 629.11 352.636 628.77C373.655 628.706 394.673 628.644 415.692 628.669C421.643 628.675 427.594 628.675 433.546 628.676C445.206 628.678 456.866 628.685 468.525 628.695C479.741 628.704 490.957 628.711 502.173 628.715C502.884 628.715 503.594 628.716 504.326 628.716C507.897 628.717 511.468 628.718 515.039 628.72C543.905 628.73 572.77 628.747 601.636 628.77C601.639 616.645 601.641 604.519 601.642 592.394C601.643 586.758 601.644 581.122 601.645 575.486C601.654 540.136 601.587 504.788 601.457 469.439C601.454 468.727 601.452 468.015 601.45 467.282C601.444 465.839 601.434 464.396 601.421 462.952C601.323 450.861 605.188 444.723 612.636 435.77C613.83 434.161 615.016 432.544 616.183 430.915C617.249 429.47 618.317 428.026 619.386 426.583C620.579 424.968 621.771 423.353 622.964 421.739C623.565 420.925 624.167 420.112 624.786 419.274C626.671 416.723 628.552 414.169 630.433 411.614C631.053 410.771 631.673 409.928 632.313 409.06C633.489 407.461 634.666 405.862 635.842 404.263C636.913 402.809 637.988 401.356 639.066 399.905C640.15 398.43 641.217 396.942 642.269 395.443C642.792 394.709 643.315 393.976 643.855 393.219C644.318 392.556 644.781 391.893 645.259 391.21C645.713 390.735 646.168 390.26 646.636 389.77C647.626 389.77 648.616 389.77 649.636 389.77C649.727 423.487 649.798 457.203 649.84 490.92C649.845 494.903 649.85 498.885 649.856 502.868C649.857 503.661 649.858 504.454 649.859 505.271C649.876 518.1 649.908 530.929 649.944 543.759C649.982 556.928 650.004 570.097 650.012 583.266C650.018 591.389 650.035 599.512 650.068 607.634C650.091 613.868 650.094 620.102 650.088 626.336C650.089 628.89 650.097 631.443 650.113 633.996C650.133 637.487 650.128 640.978 650.117 644.469C650.129 645.475 650.14 646.481 650.152 647.517C650.076 656.562 647.606 664.591 641.339 671.301C634.57 677.139 626.971 677.892 618.291 677.904C617.57 677.907 616.849 677.909 616.105 677.911C613.688 677.918 611.271 677.918 608.854 677.917C607.103 677.921 605.353 677.924 603.603 677.928C598.792 677.938 593.981 677.942 589.17 677.945C583.982 677.949 578.793 677.958 573.605 677.967C561.076 677.987 548.548 677.997 536.019 678.006C530.119 678.01 524.218 678.015 518.318 678.021C498.703 678.038 479.088 678.052 459.474 678.059C454.385 678.061 449.296 678.063 444.208 678.065C442.943 678.066 441.678 678.066 440.375 678.067C419.881 678.075 399.387 678.1 378.892 678.133C357.85 678.166 336.808 678.184 315.766 678.187C303.952 678.189 292.138 678.198 280.324 678.224C270.264 678.245 260.205 678.253 250.145 678.244C245.014 678.239 239.882 678.241 234.751 678.26C230.05 678.278 225.349 678.277 220.648 678.261C218.951 678.259 217.253 678.263 215.556 678.275C205.294 678.343 195.43 678.199 186.917 671.692C186.329 670.975 185.741 670.259 185.136 669.52C184.527 668.814 183.919 668.107 183.292 667.379C179.055 660.704 178.196 654.752 178.256 647.037C178.251 646.082 178.246 645.126 178.241 644.142C178.229 640.941 178.239 637.741 178.248 634.54C178.244 632.222 178.239 629.904 178.232 627.586C178.217 621.216 178.222 614.845 178.229 608.475C178.235 602.311 178.223 596.146 178.214 589.982C178.194 576.595 178.192 563.209 178.197 549.822C178.202 538.106 178.201 526.39 178.195 514.674C178.195 513.103 178.194 511.531 178.193 509.96C178.192 507.592 178.191 505.223 178.19 502.855C178.179 480.838 178.174 458.821 178.182 436.804C178.182 435.974 178.183 435.144 178.183 434.289C178.186 427.549 178.188 420.809 178.191 414.069C178.201 387.778 178.193 361.488 178.169 335.197C178.143 305.659 178.13 276.121 178.137 246.582C178.138 243.433 178.139 240.283 178.14 237.134C178.14 236.358 178.14 235.583 178.14 234.784C178.142 223.077 178.134 211.37 178.121 199.663C178.106 186.349 178.105 173.035 178.123 159.722C178.132 152.927 178.134 146.134 178.119 139.339C178.105 133.12 178.109 126.902 178.129 120.683C178.133 118.433 178.13 116.182 178.119 113.932C178.106 110.873 178.118 107.814 178.135 104.755C178.126 103.882 178.116 103.009 178.106 102.109C178.198 94.3445 180.583 87.9702 184.761 81.4576C192.186 74.5163 200.272 72.6159 210.136 72.6407Z" fill="#1955E5"/>
    <path d="M139.448 141.458C140.797 141.455 142.145 141.452 143.493 141.448C153.369 141.503 153.369 141.503 155.636 143.77C155.833 146.696 155.903 149.528 155.886 152.456C155.889 153.37 155.892 154.285 155.895 155.227C155.902 158.327 155.895 161.427 155.887 164.526C155.89 166.757 155.893 168.988 155.896 171.219C155.904 177.377 155.9 183.535 155.894 189.693C155.89 195.643 155.895 201.594 155.9 207.544C155.911 219.724 155.913 231.903 155.91 244.083C155.907 261.485 155.92 278.887 155.937 296.289C155.944 303.269 155.95 310.249 155.956 317.229C155.957 318.005 155.957 318.781 155.958 319.58C155.974 338.051 155.985 356.522 155.994 374.994C155.995 375.802 155.995 376.611 155.995 377.444C156.005 396.302 156.012 415.16 156.014 434.018C156.014 435.234 156.014 435.234 156.015 436.475C156.015 440.563 156.016 444.651 156.016 448.739C156.016 449.951 156.016 449.951 156.016 451.187C156.017 452.818 156.017 454.448 156.017 456.079C156.02 483.019 156.037 509.958 156.069 536.898C156.074 540.702 156.078 544.507 156.082 548.311C156.083 549.06 156.084 549.809 156.085 550.58C156.097 562.635 156.095 574.689 156.087 586.743C156.08 598.859 156.086 610.975 156.107 623.092C156.118 629.657 156.122 636.222 156.109 642.787C156.097 648.795 156.103 654.804 156.124 660.813C156.128 662.988 156.126 665.163 156.116 667.338C156.103 670.294 156.115 673.248 156.134 676.204C156.119 677.472 156.119 677.472 156.105 678.765C156.179 684.737 157.372 689.702 160.636 694.77C164.901 698.617 168.088 699.271 173.746 699.278C174.442 699.284 175.138 699.291 175.854 699.297C178.185 699.313 180.516 699.301 182.847 699.289C184.535 699.295 186.223 699.303 187.911 699.312C192.549 699.332 197.187 699.328 201.826 699.319C206.828 699.314 211.83 699.332 216.832 699.347C225.498 699.371 234.164 699.379 242.83 699.378C255.36 699.377 267.89 699.397 280.42 699.423C300.748 699.464 321.076 699.487 341.405 699.499C361.153 699.511 380.901 699.531 400.649 699.563C401.866 699.564 403.083 699.566 404.337 699.568C410.443 699.578 416.549 699.588 422.655 699.598C473.315 699.681 523.975 699.735 574.636 699.77C577.736 705.742 578.123 709.887 578.073 716.52C578.093 717.459 578.113 718.397 578.134 719.364C578.127 729.088 575.248 736.969 568.569 744.079C562.287 749.574 555.636 750.892 547.493 750.91C546.769 750.913 546.046 750.916 545.3 750.919C542.862 750.928 540.425 750.929 537.987 750.931C536.227 750.935 534.466 750.941 532.706 750.946C527.858 750.96 523.011 750.968 518.163 750.974C514.008 750.98 509.852 750.991 505.697 751.001C492.005 751.034 478.313 751.055 464.621 751.074C461.056 751.079 457.491 751.084 453.926 751.089C431.789 751.12 409.653 751.146 387.516 751.163C382.388 751.167 377.26 751.171 372.132 751.175C370.857 751.176 369.583 751.177 368.27 751.178C347.624 751.195 326.978 751.236 306.332 751.287C285.138 751.339 263.943 751.368 242.748 751.375C230.848 751.38 218.947 751.395 207.046 751.435C196.91 751.469 186.775 751.483 176.639 751.471C171.469 751.465 166.299 751.469 161.129 751.499C156.391 751.526 151.654 751.526 146.916 751.503C145.207 751.5 143.498 751.507 141.788 751.525C131.666 751.626 123.188 750.87 114.636 744.77C112.207 742.269 110.331 739.813 108.636 736.77C108.124 735.934 107.613 735.098 107.086 734.237C105.205 729.74 105.219 725.994 105.256 721.171C105.251 720.206 105.246 719.241 105.241 718.247C105.229 715 105.239 711.754 105.248 708.508C105.244 706.162 105.239 703.816 105.232 701.47C105.219 695.691 105.22 689.912 105.227 684.133C105.234 677.211 105.224 670.288 105.214 663.366C105.194 649.802 105.192 636.239 105.197 622.675C105.202 610.803 105.201 598.931 105.195 587.06C105.195 585.468 105.194 583.876 105.193 582.285C105.192 579.886 105.191 577.488 105.19 575.089C105.179 552.786 105.174 530.482 105.182 508.178C105.182 507.337 105.183 506.496 105.183 505.63C105.186 498.8 105.188 491.97 105.191 485.14C105.201 458.501 105.193 431.862 105.169 405.222C105.143 375.299 105.13 345.376 105.137 315.453C105.138 312.262 105.139 309.072 105.14 305.882C105.14 305.096 105.14 304.311 105.14 303.502C105.142 291.639 105.134 279.777 105.121 267.915C105.106 254.424 105.105 240.934 105.123 227.444C105.132 220.559 105.134 213.674 105.119 206.789C105.105 200.488 105.109 194.187 105.129 187.886C105.133 185.605 105.13 183.323 105.119 181.042C105.106 177.943 105.118 174.846 105.135 171.747C105.126 170.86 105.116 169.972 105.106 169.058C105.19 161.849 107.188 156.03 111.53 150.247C112.163 149.636 112.796 149.025 113.448 148.395C114.386 147.455 114.386 147.455 115.343 146.497C122.915 140.795 130.246 141.345 139.448 141.458Z" fill="#0B1F5B"/>
    <path d="M712.698 241.645C715.636 242.77 715.636 242.77 717.636 244.77C718.094 248.767 718.055 251.051 716.011 254.559C715.227 255.495 714.443 256.431 713.636 257.395C712.712 258.529 711.791 259.665 710.87 260.801C710.356 261.427 709.843 262.052 709.314 262.696C706.081 266.692 702.994 270.802 699.886 274.895C699.202 275.793 698.517 276.69 697.813 277.615C692.104 285.116 686.505 292.694 680.929 300.294C676.411 306.447 671.822 312.546 667.232 318.647C664.259 322.601 661.292 326.561 658.323 330.52C657.05 332.218 655.776 333.916 654.503 335.614C653.866 336.463 653.229 337.313 652.572 338.188C646.769 345.926 646.769 345.926 644.852 348.482C643.585 350.171 642.319 351.859 641.053 353.548C638.21 357.339 635.367 361.129 632.519 364.915C631.537 366.221 630.555 367.526 629.573 368.833C628.853 369.79 628.853 369.79 628.119 370.768C624.893 375.069 621.705 379.396 618.528 383.733C613.312 390.851 608.023 397.892 602.573 404.833C597.439 411.373 592.512 418.031 587.679 424.796C581.428 433.516 574.878 442.007 568.353 450.523C566.262 453.259 564.195 456.011 562.136 458.77C557.377 465.139 552.546 471.452 547.723 477.772C543.544 483.253 539.388 488.75 535.261 494.27C530.114 501.152 524.89 507.97 519.636 514.77C518.386 516.392 517.138 518.016 515.89 519.639C515.056 520.723 514.222 521.808 513.387 522.891C511.287 525.62 509.19 528.352 507.101 531.09C486.198 558.456 486.198 558.456 475.319 560.126C468.519 560.519 463.238 558.583 457.636 554.77C449.368 546.974 441.933 538.259 434.815 529.419C432.658 526.797 430.423 524.279 428.136 521.77C424.217 517.47 420.544 513.011 416.886 508.489C414.701 505.849 412.444 503.303 410.136 500.77C406.29 496.546 402.668 492.181 399.073 487.743C396.367 484.442 393.605 481.194 390.823 477.958C390.319 477.371 389.815 476.784 389.295 476.18C387.743 474.376 386.19 472.573 384.636 470.77C369.408 453.105 369.408 453.105 363.636 445.77C363.221 445.267 362.806 444.763 362.379 444.244C356.857 437.49 353.233 431.8 353.96 422.766C356.295 412.414 366.236 403.791 374.448 397.645C379.804 394.62 385.708 394.763 391.636 395.77C395.152 397.241 397.78 399.269 400.636 401.77C401.423 402.458 402.211 403.147 403.022 403.856C404.703 405.36 406.371 406.879 408.026 408.411C410.696 410.825 413.452 413.082 416.261 415.333C420.355 418.644 424.093 422.12 427.765 425.887C431.84 429.988 436.314 433.653 440.726 437.383C441.883 438.366 443.041 439.349 444.198 440.333C444.789 440.832 445.379 441.331 445.987 441.846C449.332 444.703 452.571 447.634 455.733 450.692C456.406 451.34 457.079 451.987 457.772 452.655C459.079 453.922 460.376 455.2 461.661 456.489C462.55 457.349 462.55 457.349 463.456 458.227C463.974 458.743 464.493 459.258 465.027 459.789C466.586 460.966 466.586 460.966 468.466 460.559C477.681 457.208 486.457 445.053 493.299 438.151C495.365 436.068 497.433 433.989 499.503 431.911C505.38 426.01 511.251 420.103 517.118 414.192C520.724 410.56 524.334 406.932 527.948 403.307C529.321 401.927 530.693 400.546 532.063 399.162C533.965 397.241 535.874 395.325 537.784 393.41C538.35 392.836 538.917 392.261 539.5 391.668C543.408 387.77 543.408 387.77 545.636 387.77C545.879 387.189 546.123 386.607 546.374 386.008C547.863 383.367 549.512 381.92 551.823 379.958C556.499 375.866 560.894 371.565 565.261 367.145C569.67 362.691 574.09 358.352 578.882 354.305C581.607 351.92 584.1 349.314 586.64 346.735C588.557 344.848 590.532 343.083 592.573 341.333C596.302 338.129 599.745 334.703 603.167 331.176C605.863 328.548 608.678 326.098 611.522 323.63C614.928 320.633 618.215 317.513 621.511 314.395C630.807 305.648 640.282 297.159 649.995 288.879C652.39 286.838 654.775 284.786 657.151 282.723C663.393 277.314 669.714 272.056 676.239 266.991C680.123 263.973 683.952 260.896 687.756 257.776C690.427 255.588 693.112 253.418 695.801 251.252C696.971 250.307 698.137 249.357 699.299 248.401C708.139 241.159 708.139 241.159 712.698 241.645Z" fill="#6DC0FE"/>
    <path d="M69.1983 210.583C70.779 210.564 70.779 210.564 72.3917 210.545C73.4017 210.544 74.4117 210.542 75.4522 210.54C76.3746 210.536 77.297 210.531 78.2474 210.527C80.6358 210.77 80.6358 210.77 83.6358 212.77C83.9335 215.402 84.0324 217.8 84.005 220.434C84.0102 221.641 84.0102 221.641 84.0155 222.872C84.0235 225.596 84.0099 228.319 83.9966 231.043C83.9979 233.004 84.0005 234.965 84.0044 236.926C84.0111 242.338 83.999 247.749 83.984 253.16C83.9711 258.987 83.9755 264.814 83.9777 270.641C83.9793 280.744 83.9699 290.847 83.953 300.95C83.9287 315.557 83.9208 330.164 83.9171 344.772C83.9107 368.469 83.8905 392.166 83.8621 415.863C83.8346 438.888 83.8134 461.913 83.8006 484.938C83.8002 485.647 83.7998 486.357 83.7994 487.088C83.7955 494.212 83.7916 501.336 83.7879 508.46C83.7803 522.973 83.7718 537.486 83.7629 552C83.7624 552.667 83.762 553.334 83.7616 554.022C83.734 598.605 83.6864 643.187 83.6358 687.77C78.054 690.114 73.3269 690.102 67.3233 690.083C66.3159 690.099 65.3085 690.115 64.2706 690.131C55.6356 690.137 48.772 688.612 42.2413 682.649C36.4011 675.814 34.5136 668.298 34.5016 659.543C34.4993 658.811 34.4969 658.078 34.4945 657.323C34.4878 654.855 34.4882 652.386 34.4887 649.918C34.4854 648.136 34.4816 646.353 34.4775 644.571C34.4675 639.662 34.4638 634.754 34.4611 629.845C34.4572 624.555 34.4476 619.266 34.4389 613.976C34.4191 601.196 34.4091 588.415 34.4002 575.635C34.3958 569.619 34.3904 563.602 34.3852 557.585C34.3682 537.587 34.3537 517.589 34.3464 497.591C34.3445 492.401 34.3426 487.21 34.3407 482.02C34.3402 480.73 34.3397 479.44 34.3392 478.111C34.3309 457.208 34.3056 436.306 34.2731 415.403C34.24 393.949 34.222 372.494 34.2188 351.04C34.2166 338.991 34.2079 326.943 34.1823 314.895C34.1606 304.635 34.1526 294.375 34.1623 284.116C34.1669 278.881 34.1649 273.646 34.1455 268.412C34.1279 263.618 34.1289 258.824 34.1444 254.029C34.1468 252.297 34.1425 250.565 34.1306 248.833C34.0524 236.655 35.0181 226.706 43.7022 217.461C51.3224 210.796 59.5334 210.589 69.1983 210.583Z" fill="#0A1E5A"/>
    <path d="M412.261 0.520051C413.842 0.508449 413.842 0.508449 415.456 0.496613C432.136 0.537899 432.136 0.537899 438.136 4.95755C443.228 10.686 442.979 17.6989 443.198 25.0201C443.258 26.7962 443.322 28.5723 443.39 30.3482C443.414 31.1258 443.438 31.9034 443.462 32.7046C443.571 34.9675 443.571 34.9675 444.636 37.7701C447.718 39.3111 450.971 38.9269 454.355 38.9458C455.943 38.9691 457.532 38.9932 459.12 39.0181C461.617 39.053 464.113 39.0824 466.61 39.096C478.387 39.1723 488.426 39.8805 498.167 47.2779C503.417 52.6118 504.758 59.664 504.813 66.8526C504.819 67.5701 504.826 68.2876 504.833 69.0268C504.852 71.4022 504.864 73.7775 504.874 76.1529C504.878 76.9663 504.882 77.7798 504.886 78.6179C504.907 82.9271 504.922 87.2362 504.931 91.5454C504.942 95.9805 504.976 100.415 505.016 104.85C505.042 108.273 505.051 111.696 505.054 115.119C505.059 116.753 505.071 118.387 505.089 120.02C505.195 129.92 505.183 138.442 498.452 146.329C497.708 146.949 496.965 147.569 496.198 148.208C495.086 149.165 495.086 149.165 493.952 150.141C489.515 153.262 485.778 154.021 480.394 154.037C478.508 154.05 478.508 154.05 476.583 154.063C475.197 154.063 473.812 154.062 472.426 154.061C470.96 154.067 469.494 154.073 468.029 154.081C464.054 154.099 460.078 154.103 456.103 154.105C453.617 154.106 451.131 154.11 448.646 154.116C439.967 154.134 431.289 154.142 422.611 154.141C414.532 154.139 406.453 154.161 398.374 154.192C391.429 154.218 384.485 154.229 377.54 154.228C373.396 154.227 369.252 154.233 365.108 154.254C361.208 154.274 357.309 154.274 353.409 154.259C351.982 154.257 350.555 154.262 349.128 154.274C339.953 154.347 333.824 153.792 326.429 148.059C325.634 147.235 325.634 147.235 324.823 146.395C324.281 145.851 323.738 145.307 323.179 144.747C313.757 132.678 317.417 110.882 317.396 96.4075C317.386 92.4494 317.355 88.4917 317.323 84.5337C317.317 81.9914 317.312 79.4491 317.308 76.9068C317.295 75.7368 317.283 74.5667 317.27 73.3613C317.296 63.7956 318.583 55.1432 324.765 47.5279C332.144 40.595 341.19 39.674 350.878 39.4536C351.646 39.4329 352.415 39.4121 353.206 39.3907C355.641 39.3257 358.076 39.2665 360.511 39.2076C362.17 39.1643 363.829 39.1207 365.487 39.0767C369.537 38.9701 373.586 38.8687 377.636 38.7701C377.681 38.0139 377.726 37.2577 377.772 36.4785C377.984 33.0331 378.216 29.5892 378.448 26.1451C378.519 24.9552 378.589 23.7654 378.661 22.5396C378.742 21.3859 378.822 20.2322 378.905 19.0435C379.007 17.4567 379.007 17.4567 379.112 15.8379C379.879 11.3463 381.611 7.96003 384.573 4.52005C392.639 -0.0889359 403.208 0.453156 412.261 0.520051Z" fill="#FFE4B0"/>
    <path d="M270.755 276.521C271.641 276.521 272.527 276.521 273.439 276.521C274.46 276.517 275.48 276.512 276.532 276.507C278.226 276.515 278.226 276.515 279.955 276.523C281.148 276.52 282.342 276.518 283.571 276.516C286.894 276.511 290.217 276.515 293.54 276.523C297.119 276.53 300.699 276.525 304.278 276.521C311.294 276.516 318.31 276.522 325.326 276.531C333.488 276.542 341.65 276.542 349.813 276.541C364.371 276.541 378.929 276.55 393.488 276.564C407.63 276.578 421.772 276.585 435.914 276.585C436.786 276.585 437.657 276.585 438.554 276.585C439.424 276.585 440.293 276.585 441.189 276.585C457.268 276.584 473.347 276.59 489.425 276.599C495.122 276.602 500.818 276.603 506.514 276.603C513.45 276.604 520.387 276.608 527.323 276.618C530.865 276.622 534.408 276.625 537.95 276.624C541.781 276.623 545.612 276.629 549.444 276.636C550.575 276.635 551.707 276.633 552.874 276.632C554.4 276.637 554.4 276.637 555.958 276.641C557.286 276.643 557.286 276.643 558.642 276.644C560.636 276.77 560.636 276.77 561.636 277.77C561.734 279.207 561.764 280.65 561.765 282.09C561.768 283.008 561.772 283.926 561.775 284.871C561.772 286.368 561.772 286.368 561.769 287.895C561.77 289.421 561.77 289.421 561.772 290.978C561.772 293.133 561.77 295.288 561.766 297.444C561.761 300.756 561.766 304.068 561.773 307.379C561.772 309.468 561.771 311.557 561.769 313.645C561.771 314.643 561.773 315.641 561.775 316.669C561.772 317.587 561.768 318.504 561.765 319.45C561.764 320.668 561.764 320.668 561.763 321.91C561.636 323.77 561.636 323.77 560.636 324.77C559.072 324.867 557.504 324.894 555.937 324.893C554.403 324.896 554.403 324.896 552.838 324.899C551.132 324.895 551.132 324.895 549.392 324.89C548.195 324.891 546.998 324.892 545.764 324.893C542.425 324.894 539.087 324.891 535.749 324.886C532.154 324.882 528.56 324.883 524.965 324.884C518.733 324.885 512.5 324.881 506.268 324.876C497.256 324.868 488.245 324.865 479.234 324.864C464.615 324.862 449.996 324.855 435.377 324.846C421.173 324.836 406.968 324.829 392.764 324.825C391.889 324.825 391.014 324.824 390.113 324.824C385.724 324.823 381.335 324.822 376.946 324.82C340.509 324.81 304.072 324.792 267.636 324.77C267.443 318.256 267.265 311.742 267.099 305.227C267.04 303.009 266.978 300.792 266.912 298.574C266.818 295.392 266.737 292.21 266.659 289.028C266.627 288.032 266.595 287.036 266.562 286.01C266.542 285.089 266.521 284.169 266.501 283.22C266.478 282.407 266.456 281.594 266.433 280.757C266.736 277.79 267.834 276.865 270.755 276.521Z" fill="#6EC1FF"/>
    <path d="M600.397 72.6119C603.597 72.5557 606.796 72.5165 609.995 72.484C611.401 72.4666 612.808 72.4425 614.214 72.4109C623.867 72.2015 632.984 73.0733 641.011 78.9576C647.39 85.7926 649.76 92.6142 649.763 101.871C649.767 103.711 649.767 103.711 649.771 105.588C649.769 106.939 649.767 108.29 649.765 109.641C649.767 111.071 649.768 112.5 649.771 113.93C649.775 117.808 649.773 121.687 649.77 125.565C649.768 129.634 649.77 133.703 649.772 137.772C649.773 144.613 649.771 151.453 649.766 158.293C649.761 166.177 649.763 174.061 649.768 181.944C649.773 188.728 649.773 195.512 649.771 202.297C649.769 206.341 649.769 210.386 649.772 214.43C649.775 218.241 649.773 222.052 649.767 225.863C649.766 227.253 649.766 228.643 649.769 230.033C649.804 254.171 649.804 254.171 646.3 258.032C645.297 258.832 644.294 259.633 643.261 260.458C642.719 260.907 642.178 261.357 641.619 261.82C639.982 263.169 638.314 264.471 636.636 265.77C634.862 267.204 633.091 268.642 631.323 270.083C630.438 270.794 629.552 271.506 628.64 272.239C624.222 275.961 620.037 279.92 615.849 283.898C606.488 292.77 606.488 292.77 602.636 292.77C602.636 236.34 602.636 179.91 602.636 121.77C579.866 121.77 557.096 121.77 533.636 121.77C531.636 119.77 531.636 119.77 531.389 117.828C531.39 117.036 531.391 116.244 531.393 115.428C531.39 114.53 531.387 113.633 531.384 112.708C531.391 111.737 531.398 110.766 531.405 109.766C531.406 108.773 531.406 107.779 531.407 106.755C531.41 104.653 531.418 102.55 531.43 100.448C531.448 97.2174 531.451 93.9871 531.45 90.7564C531.455 88.718 531.461 86.6796 531.468 84.6412C531.469 83.6683 531.47 82.6954 531.471 81.693C531.478 80.7986 531.484 79.9042 531.491 78.9827C531.494 78.1916 531.498 77.4004 531.502 76.5852C531.636 74.7701 531.636 74.7701 532.636 73.7701C534.291 73.6468 535.951 73.5922 537.61 73.5648C538.679 73.5448 539.749 73.5249 540.85 73.5044C542.025 73.4877 543.199 73.4709 544.409 73.4537C545.624 73.4327 546.839 73.4117 548.09 73.39C552.064 73.3233 556.037 73.2645 560.011 73.2076C561.366 73.1876 562.721 73.1675 564.077 73.1474C570.802 73.0483 577.527 72.9561 584.252 72.8697C589.634 72.7997 595.016 72.7126 590.397 72.6119Z" fill="#1A57E8"/>
    <path d="M60.6358 210.77C63.9066 210.712 67.1772 210.676 70.4483 210.645C71.3771 210.628 72.3058 210.612 73.2628 210.594C74.1554 210.588 75.0481 210.581 75.9678 210.575C76.79 210.564 77.6122 210.554 78.4593 210.543C80.6358 210.77 80.6358 210.77 83.6358 212.77C83.9335 215.402 84.0324 217.8 84.0049 220.434C84.0101 221.641 84.0101 221.641 84.0154 222.872C84.0234 225.596 84.0099 228.319 83.9966 231.043C83.9979 233.004 84.0005 234.965 84.0043 236.926C84.0111 242.338 83.999 247.749 83.984 253.16C83.9711 258.987 83.9754 264.814 83.9777 270.641C83.9793 280.744 83.9698 290.847 83.953 300.95C83.9287 315.557 83.9208 330.164 83.917 344.772C83.9107 368.469 83.8905 392.166 83.8621 415.863C83.8346 438.888 83.8133 461.913 83.8006 484.938C83.8 486.002 83.8 486.002 83.7994 487.088C83.7954 494.212 83.7916 501.336 83.7879 508.46C83.7803 522.973 83.7718 537.486 83.7628 552C83.7624 552.667 83.762 553.334 83.7616 554.022C83.734 598.605 83.6864 643.187 83.6358 687.77C79.0076 690.126 74.8805 690.005 69.8233 689.895C69.035 689.886 68.2468 689.877 67.4346 689.868C65.5016 689.844 63.5686 689.808 61.6358 689.77C61.741 637.362 61.8509 584.954 61.9669 532.546C61.9807 526.326 61.9944 520.106 62.0081 513.885C62.0108 512.647 62.0136 511.409 62.0164 510.133C62.0602 490.219 62.1009 470.305 62.1405 450.391C62.1813 429.88 62.2255 409.369 62.2727 388.858C62.299 377.37 62.3239 365.882 62.3449 354.394C62.4312 307.511 62.5334 260.642 63.6358 213.77C62.6458 213.77 61.6558 213.77 60.6358 213.77C60.6358 212.78 60.6358 211.79 60.6358 210.77Z" fill="#081644"/>
    <path d="M273.557 449.482C275.461 449.429 275.461 449.429 277.403 449.375C282.476 449.261 287.55 449.178 292.625 449.118C296.473 449.072 300.318 449.005 304.165 448.885C307.889 448.77 311.609 448.71 315.334 448.687C316.747 448.67 318.16 448.633 319.571 448.576C325.791 448.338 330.663 448.225 335.695 452.165C338.229 454.925 340.463 457.722 342.636 460.77C343.617 462.001 344.603 463.229 345.597 464.45C346.405 465.512 347.209 466.578 348.011 467.645C352.218 473.134 356.695 478.26 361.489 483.244C370.636 492.844 370.636 492.844 370.636 497.77C336.646 497.77 302.656 497.77 267.636 497.77C266.464 495.426 266.509 494.04 266.506 491.428C266.503 490.53 266.5 489.633 266.497 488.708C266.5 487.252 266.5 487.252 266.503 485.766C266.502 484.773 266.501 483.779 266.5 482.755C266.499 480.653 266.501 478.55 266.505 476.448C266.511 473.217 266.506 469.987 266.499 466.756C266.5 464.718 266.501 462.68 266.503 460.641C266.501 459.668 266.499 458.695 266.497 457.693C266.5 456.799 266.503 455.904 266.506 454.983C266.507 454.192 266.508 453.4 266.509 452.585C266.793 448.529 270.202 449.575 273.557 449.482Z" fill="#1956E7"/>
    <path d="M192.636 75.7701C193.296 76.1001 193.956 76.4301 194.636 76.7701C193.205 78.2553 191.766 79.7331 190.323 81.2076C189.523 82.0313 188.722 82.855 187.898 83.7037C185.636 85.7701 185.636 85.7701 182.636 86.7701C183.962 81.1332 188.102 78.8382 192.636 75.7701Z" fill="#1444B6"/>
  </g>
</svg>
